<mxfile host="app.diagrams.net" modified="2021-04-08T01:56:08.873Z" agent="5.0 (Windows NT 6.1; Win64; x64) AppleWebKit/537.36 (KHTML, like Gecko) Chrome/89.0.4389.72 Safari/537.36" etag="Zx9EgYxSEuKKTBqz-Z_8" version="14.2.9" type="github">
  <diagram id="IaG0tY-zp2y_lXE2sIzn" name="第 1 页">
    <mxGraphModel dx="860" dy="474" grid="1" gridSize="10" guides="1" tooltips="1" connect="1" arrows="1" fold="1" page="1" pageScale="1" pageWidth="827" pageHeight="1169" math="0" shadow="0">
      <root>
        <mxCell id="0" />
        <mxCell id="1" parent="0" />
        <mxCell id="nuspFeH-WTYY_iQstdWL-8" value="" style="edgeStyle=orthogonalEdgeStyle;rounded=0;orthogonalLoop=1;jettySize=auto;html=1;" edge="1" parent="1" source="nuspFeH-WTYY_iQstdWL-1" target="nuspFeH-WTYY_iQstdWL-7">
          <mxGeometry relative="1" as="geometry" />
        </mxCell>
        <mxCell id="nuspFeH-WTYY_iQstdWL-1" value="开始" style="ellipse;whiteSpace=wrap;html=1;" vertex="1" parent="1">
          <mxGeometry x="120" y="110" width="120" height="80" as="geometry" />
        </mxCell>
        <mxCell id="nuspFeH-WTYY_iQstdWL-13" value="" style="edgeStyle=orthogonalEdgeStyle;rounded=0;orthogonalLoop=1;jettySize=auto;html=1;" edge="1" parent="1" source="nuspFeH-WTYY_iQstdWL-2" target="nuspFeH-WTYY_iQstdWL-12">
          <mxGeometry relative="1" as="geometry" />
        </mxCell>
        <mxCell id="nuspFeH-WTYY_iQstdWL-2" value="获得终端节点编号" style="rounded=1;whiteSpace=wrap;html=1;" vertex="1" parent="1">
          <mxGeometry x="120" y="310" width="120" height="60" as="geometry" />
        </mxCell>
        <mxCell id="nuspFeH-WTYY_iQstdWL-5" style="edgeStyle=orthogonalEdgeStyle;rounded=0;orthogonalLoop=1;jettySize=auto;html=1;exitX=1;exitY=0.5;exitDx=0;exitDy=0;entryX=1;entryY=0.5;entryDx=0;entryDy=0;" edge="1" parent="1" source="nuspFeH-WTYY_iQstdWL-4" target="nuspFeH-WTYY_iQstdWL-2">
          <mxGeometry relative="1" as="geometry">
            <Array as="points">
              <mxPoint x="370" y="520" />
              <mxPoint x="370" y="340" />
            </Array>
          </mxGeometry>
        </mxCell>
        <mxCell id="nuspFeH-WTYY_iQstdWL-6" value="否" style="edgeLabel;html=1;align=center;verticalAlign=middle;resizable=0;points=[];" vertex="1" connectable="0" parent="nuspFeH-WTYY_iQstdWL-5">
          <mxGeometry x="-0.6" y="2" relative="1" as="geometry">
            <mxPoint as="offset" />
          </mxGeometry>
        </mxCell>
        <mxCell id="nuspFeH-WTYY_iQstdWL-17" value="" style="edgeStyle=orthogonalEdgeStyle;rounded=0;orthogonalLoop=1;jettySize=auto;html=1;" edge="1" parent="1" source="nuspFeH-WTYY_iQstdWL-4" target="nuspFeH-WTYY_iQstdWL-15">
          <mxGeometry relative="1" as="geometry" />
        </mxCell>
        <mxCell id="nuspFeH-WTYY_iQstdWL-4" value="是否获取到节点编号" style="rhombus;whiteSpace=wrap;html=1;" vertex="1" parent="1">
          <mxGeometry x="140" y="480" width="80" height="80" as="geometry" />
        </mxCell>
        <mxCell id="nuspFeH-WTYY_iQstdWL-9" value="" style="edgeStyle=orthogonalEdgeStyle;rounded=0;orthogonalLoop=1;jettySize=auto;html=1;" edge="1" parent="1" source="nuspFeH-WTYY_iQstdWL-7" target="nuspFeH-WTYY_iQstdWL-2">
          <mxGeometry relative="1" as="geometry" />
        </mxCell>
        <mxCell id="nuspFeH-WTYY_iQstdWL-7" value="启动参数初始化" style="rounded=1;whiteSpace=wrap;html=1;" vertex="1" parent="1">
          <mxGeometry x="120" y="220" width="120" height="60" as="geometry" />
        </mxCell>
        <mxCell id="nuspFeH-WTYY_iQstdWL-14" value="" style="edgeStyle=orthogonalEdgeStyle;rounded=0;orthogonalLoop=1;jettySize=auto;html=1;" edge="1" parent="1" source="nuspFeH-WTYY_iQstdWL-12" target="nuspFeH-WTYY_iQstdWL-4">
          <mxGeometry relative="1" as="geometry" />
        </mxCell>
        <mxCell id="nuspFeH-WTYY_iQstdWL-12" value="&lt;span&gt;redis分布式锁&lt;/span&gt;" style="shape=process;whiteSpace=wrap;html=1;backgroundOutline=1;" vertex="1" parent="1">
          <mxGeometry x="120" y="400" width="120" height="60" as="geometry" />
        </mxCell>
        <mxCell id="nuspFeH-WTYY_iQstdWL-18" value="" style="edgeStyle=orthogonalEdgeStyle;rounded=0;orthogonalLoop=1;jettySize=auto;html=1;" edge="1" parent="1" source="nuspFeH-WTYY_iQstdWL-15" target="nuspFeH-WTYY_iQstdWL-16">
          <mxGeometry relative="1" as="geometry" />
        </mxCell>
        <mxCell id="nuspFeH-WTYY_iQstdWL-15" value="建立mqtt/mqtts连接" style="rounded=1;whiteSpace=wrap;html=1;" vertex="1" parent="1">
          <mxGeometry x="120" y="590" width="120" height="60" as="geometry" />
        </mxCell>
        <mxCell id="nuspFeH-WTYY_iQstdWL-21" value="" style="edgeStyle=orthogonalEdgeStyle;rounded=0;orthogonalLoop=1;jettySize=auto;html=1;" edge="1" parent="1" source="nuspFeH-WTYY_iQstdWL-16" target="nuspFeH-WTYY_iQstdWL-19">
          <mxGeometry relative="1" as="geometry" />
        </mxCell>
        <mxCell id="nuspFeH-WTYY_iQstdWL-16" value="订阅topic" style="rounded=1;whiteSpace=wrap;html=1;" vertex="1" parent="1">
          <mxGeometry x="120" y="680" width="120" height="60" as="geometry" />
        </mxCell>
        <mxCell id="nuspFeH-WTYY_iQstdWL-22" value="" style="edgeStyle=orthogonalEdgeStyle;rounded=0;orthogonalLoop=1;jettySize=auto;html=1;" edge="1" parent="1" source="nuspFeH-WTYY_iQstdWL-19" target="nuspFeH-WTYY_iQstdWL-20">
          <mxGeometry relative="1" as="geometry" />
        </mxCell>
        <mxCell id="nuspFeH-WTYY_iQstdWL-23" value="是" style="edgeLabel;html=1;align=center;verticalAlign=middle;resizable=0;points=[];" vertex="1" connectable="0" parent="nuspFeH-WTYY_iQstdWL-22">
          <mxGeometry x="-0.64" y="-2" relative="1" as="geometry">
            <mxPoint as="offset" />
          </mxGeometry>
        </mxCell>
        <mxCell id="nuspFeH-WTYY_iQstdWL-26" style="edgeStyle=orthogonalEdgeStyle;rounded=0;orthogonalLoop=1;jettySize=auto;html=1;exitX=1;exitY=0.5;exitDx=0;exitDy=0;entryX=1;entryY=0.5;entryDx=0;entryDy=0;" edge="1" parent="1" source="nuspFeH-WTYY_iQstdWL-19" target="nuspFeH-WTYY_iQstdWL-24">
          <mxGeometry relative="1" as="geometry" />
        </mxCell>
        <mxCell id="nuspFeH-WTYY_iQstdWL-27" value="否" style="edgeLabel;html=1;align=center;verticalAlign=middle;resizable=0;points=[];" vertex="1" connectable="0" parent="nuspFeH-WTYY_iQstdWL-26">
          <mxGeometry x="-0.2308" relative="1" as="geometry">
            <mxPoint as="offset" />
          </mxGeometry>
        </mxCell>
        <mxCell id="nuspFeH-WTYY_iQstdWL-19" value="是否上报数据" style="rhombus;whiteSpace=wrap;html=1;" vertex="1" parent="1">
          <mxGeometry x="140" y="770" width="80" height="80" as="geometry" />
        </mxCell>
        <mxCell id="nuspFeH-WTYY_iQstdWL-25" value="" style="edgeStyle=orthogonalEdgeStyle;rounded=0;orthogonalLoop=1;jettySize=auto;html=1;" edge="1" parent="1" source="nuspFeH-WTYY_iQstdWL-20" target="nuspFeH-WTYY_iQstdWL-24">
          <mxGeometry relative="1" as="geometry" />
        </mxCell>
        <mxCell id="nuspFeH-WTYY_iQstdWL-20" value="启动上报定时器" style="rounded=1;whiteSpace=wrap;html=1;" vertex="1" parent="1">
          <mxGeometry x="120" y="880" width="120" height="60" as="geometry" />
        </mxCell>
        <mxCell id="nuspFeH-WTYY_iQstdWL-24" value="结束" style="ellipse;whiteSpace=wrap;html=1;" vertex="1" parent="1">
          <mxGeometry x="120" y="970" width="120" height="80" as="geometry" />
        </mxCell>
      </root>
    </mxGraphModel>
  </diagram>
</mxfile>
